<mxfile host="Electron" modified="2024-05-12T19:26:08.723Z" agent="Mozilla/5.0 (X11; Linux x86_64) AppleWebKit/537.36 (KHTML, like Gecko) draw.io/23.1.5 Chrome/120.0.6099.109 Electron/28.1.0 Safari/537.36" etag="wAdshWgIOGXzWy9n7f-Y" version="23.1.5" type="device">
  <diagram name="Page-1" id="WmKcBqQ57zAdK9sFzErc">
    <mxGraphModel dx="14280" dy="8660" grid="1" gridSize="12" guides="1" tooltips="1" connect="1" arrows="1" fold="1" page="1" pageScale="1" pageWidth="10000" pageHeight="3600" math="0" shadow="0">
      <root>
        <mxCell id="0" />
        <mxCell id="1" parent="0" />
        <mxCell id="RIsMsyV0FrPjkX1AzLqW-102" value="" style="rounded=0;whiteSpace=wrap;html=1;fillColor=#333300;" vertex="1" parent="1">
          <mxGeometry x="252" y="1548" width="648" height="420" as="geometry" />
        </mxCell>
        <mxCell id="RIsMsyV0FrPjkX1AzLqW-29" value="" style="rounded=0;whiteSpace=wrap;html=1;fillColor=#330000;" vertex="1" parent="1">
          <mxGeometry x="252" y="1080" width="648" height="420" as="geometry" />
        </mxCell>
        <mxCell id="E4r3tB1PARUBFBZ4D4Zd-1" value="Functionality of the SFM Application" style="text;html=1;align=center;verticalAlign=middle;whiteSpace=wrap;rounded=0;fontSize=32;" parent="1" vertex="1">
          <mxGeometry x="4718" y="84" width="564" height="96" as="geometry" />
        </mxCell>
        <mxCell id="RIsMsyV0FrPjkX1AzLqW-1" value="Logs" style="shape=cylinder3;whiteSpace=wrap;html=1;boundedLbl=1;backgroundOutline=1;size=15;" vertex="1" parent="1">
          <mxGeometry x="510" y="840" width="108" height="168" as="geometry" />
        </mxCell>
        <mxCell id="RIsMsyV0FrPjkX1AzLqW-49" value="Functionality" style="rounded=0;whiteSpace=wrap;html=1;" vertex="1" parent="1">
          <mxGeometry x="60" y="3432" width="216" height="120" as="geometry" />
        </mxCell>
        <mxCell id="RIsMsyV0FrPjkX1AzLqW-52" value="" style="group" vertex="1" connectable="0" parent="1">
          <mxGeometry x="90" y="3192" width="156" height="208" as="geometry" />
        </mxCell>
        <mxCell id="RIsMsyV0FrPjkX1AzLqW-50" value="" style="triangle;whiteSpace=wrap;html=1;" vertex="1" parent="RIsMsyV0FrPjkX1AzLqW-52">
          <mxGeometry width="156" height="208" as="geometry" />
        </mxCell>
        <mxCell id="RIsMsyV0FrPjkX1AzLqW-51" value="Service" style="text;html=1;align=center;verticalAlign=middle;whiteSpace=wrap;rounded=0;" vertex="1" parent="RIsMsyV0FrPjkX1AzLqW-52">
          <mxGeometry x="24" y="89" width="60" height="30" as="geometry" />
        </mxCell>
        <mxCell id="RIsMsyV0FrPjkX1AzLqW-95" value="" style="edgeStyle=orthogonalEdgeStyle;rounded=0;orthogonalLoop=1;jettySize=auto;html=1;" edge="1" parent="1" source="RIsMsyV0FrPjkX1AzLqW-30" target="RIsMsyV0FrPjkX1AzLqW-1">
          <mxGeometry relative="1" as="geometry" />
        </mxCell>
        <mxCell id="RIsMsyV0FrPjkX1AzLqW-181" value="Service1/Service2" style="ellipse;whiteSpace=wrap;html=1;" vertex="1" parent="1">
          <mxGeometry x="102" y="3024" width="132" height="132" as="geometry" />
        </mxCell>
        <mxCell id="RIsMsyV0FrPjkX1AzLqW-182" value="Different service will be enabled based on a condition" style="text;html=1;align=center;verticalAlign=middle;whiteSpace=wrap;rounded=0;" vertex="1" parent="1">
          <mxGeometry x="240" y="3036" width="96" height="108" as="geometry" />
        </mxCell>
        <mxCell id="RIsMsyV0FrPjkX1AzLqW-183" value="Users" style="shape=cylinder3;whiteSpace=wrap;html=1;boundedLbl=1;backgroundOutline=1;size=15;" vertex="1" parent="1">
          <mxGeometry x="1578" y="840" width="108" height="168" as="geometry" />
        </mxCell>
        <mxCell id="RIsMsyV0FrPjkX1AzLqW-184" value="" style="edgeStyle=orthogonalEdgeStyle;rounded=0;orthogonalLoop=1;jettySize=auto;html=1;" edge="1" parent="1" source="RIsMsyV0FrPjkX1AzLqW-188" target="RIsMsyV0FrPjkX1AzLqW-183">
          <mxGeometry relative="1" as="geometry" />
        </mxCell>
        <mxCell id="RIsMsyV0FrPjkX1AzLqW-185" value="" style="group" vertex="1" connectable="0" parent="1">
          <mxGeometry x="996" y="1080" width="1272" height="420" as="geometry" />
        </mxCell>
        <mxCell id="RIsMsyV0FrPjkX1AzLqW-186" value="" style="group" vertex="1" connectable="0" parent="RIsMsyV0FrPjkX1AzLqW-185">
          <mxGeometry width="1272" height="420" as="geometry" />
        </mxCell>
        <mxCell id="RIsMsyV0FrPjkX1AzLqW-187" value="" style="rounded=0;whiteSpace=wrap;html=1;fillColor=#330000;" vertex="1" parent="RIsMsyV0FrPjkX1AzLqW-186">
          <mxGeometry width="1272" height="420.00000000000006" as="geometry" />
        </mxCell>
        <mxCell id="RIsMsyV0FrPjkX1AzLqW-188" value="Users 1st Services" style="text;html=1;align=center;verticalAlign=middle;whiteSpace=wrap;rounded=0;fontSize=32;" vertex="1" parent="RIsMsyV0FrPjkX1AzLqW-186">
          <mxGeometry x="390.68571428571425" y="8.076923076923077" width="490.62857142857143" height="32.30769230769231" as="geometry" />
        </mxCell>
        <mxCell id="RIsMsyV0FrPjkX1AzLqW-189" value="" style="group" vertex="1" connectable="0" parent="RIsMsyV0FrPjkX1AzLqW-186">
          <mxGeometry x="756" y="132" width="156" height="208" as="geometry" />
        </mxCell>
        <mxCell id="RIsMsyV0FrPjkX1AzLqW-190" value="" style="group" vertex="1" connectable="0" parent="RIsMsyV0FrPjkX1AzLqW-189">
          <mxGeometry width="156" height="208" as="geometry" />
        </mxCell>
        <mxCell id="RIsMsyV0FrPjkX1AzLqW-191" value="" style="triangle;whiteSpace=wrap;html=1;" vertex="1" parent="RIsMsyV0FrPjkX1AzLqW-190">
          <mxGeometry width="156" height="208" as="geometry" />
        </mxCell>
        <mxCell id="RIsMsyV0FrPjkX1AzLqW-192" value="Find" style="text;html=1;align=center;verticalAlign=middle;whiteSpace=wrap;rounded=0;" vertex="1" parent="RIsMsyV0FrPjkX1AzLqW-190">
          <mxGeometry x="12" y="89" width="84" height="30" as="geometry" />
        </mxCell>
        <mxCell id="RIsMsyV0FrPjkX1AzLqW-193" value="" style="group" vertex="1" connectable="0" parent="RIsMsyV0FrPjkX1AzLqW-186">
          <mxGeometry x="924" y="132" width="156" height="208" as="geometry" />
        </mxCell>
        <mxCell id="RIsMsyV0FrPjkX1AzLqW-194" value="" style="group" vertex="1" connectable="0" parent="RIsMsyV0FrPjkX1AzLqW-193">
          <mxGeometry width="156" height="208" as="geometry" />
        </mxCell>
        <mxCell id="RIsMsyV0FrPjkX1AzLqW-195" value="" style="triangle;whiteSpace=wrap;html=1;" vertex="1" parent="RIsMsyV0FrPjkX1AzLqW-194">
          <mxGeometry width="156" height="208" as="geometry" />
        </mxCell>
        <mxCell id="RIsMsyV0FrPjkX1AzLqW-196" value="FindById" style="text;html=1;align=center;verticalAlign=middle;whiteSpace=wrap;rounded=0;" vertex="1" parent="RIsMsyV0FrPjkX1AzLqW-194">
          <mxGeometry x="12" y="89" width="84" height="30" as="geometry" />
        </mxCell>
        <mxCell id="RIsMsyV0FrPjkX1AzLqW-197" value="" style="group" vertex="1" connectable="0" parent="RIsMsyV0FrPjkX1AzLqW-186">
          <mxGeometry x="1104" y="132" width="156" height="208" as="geometry" />
        </mxCell>
        <mxCell id="RIsMsyV0FrPjkX1AzLqW-198" value="" style="group" vertex="1" connectable="0" parent="RIsMsyV0FrPjkX1AzLqW-197">
          <mxGeometry width="156" height="208" as="geometry" />
        </mxCell>
        <mxCell id="RIsMsyV0FrPjkX1AzLqW-199" value="" style="triangle;whiteSpace=wrap;html=1;" vertex="1" parent="RIsMsyV0FrPjkX1AzLqW-198">
          <mxGeometry width="156" height="208" as="geometry" />
        </mxCell>
        <mxCell id="RIsMsyV0FrPjkX1AzLqW-200" value="Remove" style="text;html=1;align=center;verticalAlign=middle;whiteSpace=wrap;rounded=0;" vertex="1" parent="RIsMsyV0FrPjkX1AzLqW-198">
          <mxGeometry x="12" y="89" width="84" height="30" as="geometry" />
        </mxCell>
        <mxCell id="RIsMsyV0FrPjkX1AzLqW-201" value="" style="group" vertex="1" connectable="0" parent="RIsMsyV0FrPjkX1AzLqW-185">
          <mxGeometry x="216" y="132" width="156" height="208" as="geometry" />
        </mxCell>
        <mxCell id="RIsMsyV0FrPjkX1AzLqW-202" value="" style="group" vertex="1" connectable="0" parent="RIsMsyV0FrPjkX1AzLqW-201">
          <mxGeometry width="156" height="208" as="geometry" />
        </mxCell>
        <mxCell id="RIsMsyV0FrPjkX1AzLqW-203" value="" style="triangle;whiteSpace=wrap;html=1;" vertex="1" parent="RIsMsyV0FrPjkX1AzLqW-202">
          <mxGeometry width="156" height="208" as="geometry" />
        </mxCell>
        <mxCell id="RIsMsyV0FrPjkX1AzLqW-204" value="CreateMany" style="text;html=1;align=center;verticalAlign=middle;whiteSpace=wrap;rounded=0;" vertex="1" parent="RIsMsyV0FrPjkX1AzLqW-202">
          <mxGeometry x="12" y="89" width="84" height="30" as="geometry" />
        </mxCell>
        <mxCell id="RIsMsyV0FrPjkX1AzLqW-205" value="" style="group" vertex="1" connectable="0" parent="RIsMsyV0FrPjkX1AzLqW-185">
          <mxGeometry x="396" y="132" width="156" height="208" as="geometry" />
        </mxCell>
        <mxCell id="RIsMsyV0FrPjkX1AzLqW-206" value="" style="triangle;whiteSpace=wrap;html=1;" vertex="1" parent="RIsMsyV0FrPjkX1AzLqW-205">
          <mxGeometry width="156" height="208" as="geometry" />
        </mxCell>
        <mxCell id="RIsMsyV0FrPjkX1AzLqW-207" value="UpdateMany" style="text;html=1;align=center;verticalAlign=middle;whiteSpace=wrap;rounded=0;" vertex="1" parent="RIsMsyV0FrPjkX1AzLqW-205">
          <mxGeometry x="12" y="89" width="84" height="30" as="geometry" />
        </mxCell>
        <mxCell id="RIsMsyV0FrPjkX1AzLqW-208" value="" style="group" vertex="1" connectable="0" parent="RIsMsyV0FrPjkX1AzLqW-185">
          <mxGeometry x="576" y="132" width="156" height="208" as="geometry" />
        </mxCell>
        <mxCell id="RIsMsyV0FrPjkX1AzLqW-209" value="" style="group" vertex="1" connectable="0" parent="RIsMsyV0FrPjkX1AzLqW-208">
          <mxGeometry width="156" height="208" as="geometry" />
        </mxCell>
        <mxCell id="RIsMsyV0FrPjkX1AzLqW-210" value="" style="triangle;whiteSpace=wrap;html=1;" vertex="1" parent="RIsMsyV0FrPjkX1AzLqW-209">
          <mxGeometry width="156" height="208" as="geometry" />
        </mxCell>
        <mxCell id="RIsMsyV0FrPjkX1AzLqW-211" value="UpdateOne" style="text;html=1;align=center;verticalAlign=middle;whiteSpace=wrap;rounded=0;" vertex="1" parent="RIsMsyV0FrPjkX1AzLqW-209">
          <mxGeometry x="12" y="89" width="84" height="30" as="geometry" />
        </mxCell>
        <mxCell id="RIsMsyV0FrPjkX1AzLqW-212" value="" style="group" vertex="1" connectable="0" parent="RIsMsyV0FrPjkX1AzLqW-185">
          <mxGeometry x="36" y="132" width="156" height="208" as="geometry" />
        </mxCell>
        <mxCell id="RIsMsyV0FrPjkX1AzLqW-213" value="" style="triangle;whiteSpace=wrap;html=1;" vertex="1" parent="RIsMsyV0FrPjkX1AzLqW-212">
          <mxGeometry width="156" height="208" as="geometry" />
        </mxCell>
        <mxCell id="RIsMsyV0FrPjkX1AzLqW-214" value="Create" style="text;html=1;align=center;verticalAlign=middle;whiteSpace=wrap;rounded=0;" vertex="1" parent="RIsMsyV0FrPjkX1AzLqW-212">
          <mxGeometry x="24" y="89" width="60" height="30" as="geometry" />
        </mxCell>
        <mxCell id="RIsMsyV0FrPjkX1AzLqW-215" value="" style="edgeStyle=orthogonalEdgeStyle;rounded=0;orthogonalLoop=1;jettySize=auto;html=1;" edge="1" parent="RIsMsyV0FrPjkX1AzLqW-185" source="RIsMsyV0FrPjkX1AzLqW-206" target="RIsMsyV0FrPjkX1AzLqW-211">
          <mxGeometry relative="1" as="geometry" />
        </mxCell>
        <mxCell id="RIsMsyV0FrPjkX1AzLqW-216" value="" style="group" vertex="1" connectable="0" parent="1">
          <mxGeometry x="996" y="1548" width="1272" height="420" as="geometry" />
        </mxCell>
        <mxCell id="RIsMsyV0FrPjkX1AzLqW-217" value="" style="rounded=0;whiteSpace=wrap;html=1;fillColor=#333300;" vertex="1" parent="RIsMsyV0FrPjkX1AzLqW-216">
          <mxGeometry width="1272" height="420.00000000000006" as="geometry" />
        </mxCell>
        <mxCell id="RIsMsyV0FrPjkX1AzLqW-218" value="Users 2nd Services" style="text;html=1;align=center;verticalAlign=middle;whiteSpace=wrap;rounded=0;fontSize=32;" vertex="1" parent="RIsMsyV0FrPjkX1AzLqW-216">
          <mxGeometry x="390.68571428571425" y="8.076923076923077" width="490.62857142857143" height="32.30769230769231" as="geometry" />
        </mxCell>
        <mxCell id="RIsMsyV0FrPjkX1AzLqW-219" value="" style="group" vertex="1" connectable="0" parent="RIsMsyV0FrPjkX1AzLqW-216">
          <mxGeometry x="1092" y="120" width="156" height="208" as="geometry" />
        </mxCell>
        <mxCell id="RIsMsyV0FrPjkX1AzLqW-220" value="" style="group" vertex="1" connectable="0" parent="RIsMsyV0FrPjkX1AzLqW-219">
          <mxGeometry width="156" height="208" as="geometry" />
        </mxCell>
        <mxCell id="RIsMsyV0FrPjkX1AzLqW-221" value="" style="triangle;whiteSpace=wrap;html=1;" vertex="1" parent="RIsMsyV0FrPjkX1AzLqW-220">
          <mxGeometry width="156" height="208" as="geometry" />
        </mxCell>
        <mxCell id="RIsMsyV0FrPjkX1AzLqW-222" value="RemoveUsers" style="text;html=1;align=center;verticalAlign=middle;whiteSpace=wrap;rounded=0;" vertex="1" parent="RIsMsyV0FrPjkX1AzLqW-220">
          <mxGeometry x="12" y="89" width="84" height="30" as="geometry" />
        </mxCell>
        <mxCell id="RIsMsyV0FrPjkX1AzLqW-223" value="" style="group" vertex="1" connectable="0" parent="RIsMsyV0FrPjkX1AzLqW-216">
          <mxGeometry x="339" y="132" width="156" height="208" as="geometry" />
        </mxCell>
        <mxCell id="RIsMsyV0FrPjkX1AzLqW-224" value="" style="group" vertex="1" connectable="0" parent="RIsMsyV0FrPjkX1AzLqW-223">
          <mxGeometry width="156" height="208" as="geometry" />
        </mxCell>
        <mxCell id="RIsMsyV0FrPjkX1AzLqW-225" value="" style="triangle;whiteSpace=wrap;html=1;" vertex="1" parent="RIsMsyV0FrPjkX1AzLqW-224">
          <mxGeometry width="156" height="208" as="geometry" />
        </mxCell>
        <mxCell id="RIsMsyV0FrPjkX1AzLqW-226" value="UpdateUsers" style="text;html=1;align=center;verticalAlign=middle;whiteSpace=wrap;rounded=0;" vertex="1" parent="RIsMsyV0FrPjkX1AzLqW-224">
          <mxGeometry x="12" y="89" width="84" height="30" as="geometry" />
        </mxCell>
        <mxCell id="RIsMsyV0FrPjkX1AzLqW-227" value="" style="group" vertex="1" connectable="0" parent="RIsMsyV0FrPjkX1AzLqW-216">
          <mxGeometry x="720" y="132" width="156" height="208" as="geometry" />
        </mxCell>
        <mxCell id="RIsMsyV0FrPjkX1AzLqW-228" value="" style="triangle;whiteSpace=wrap;html=1;" vertex="1" parent="RIsMsyV0FrPjkX1AzLqW-227">
          <mxGeometry width="156" height="208" as="geometry" />
        </mxCell>
        <mxCell id="RIsMsyV0FrPjkX1AzLqW-229" value="Login" style="text;html=1;align=center;verticalAlign=middle;whiteSpace=wrap;rounded=0;" vertex="1" parent="RIsMsyV0FrPjkX1AzLqW-227">
          <mxGeometry x="12" y="89" width="84" height="30" as="geometry" />
        </mxCell>
        <mxCell id="RIsMsyV0FrPjkX1AzLqW-230" value="" style="group" vertex="1" connectable="0" parent="RIsMsyV0FrPjkX1AzLqW-216">
          <mxGeometry x="144" y="132" width="156" height="208" as="geometry" />
        </mxCell>
        <mxCell id="RIsMsyV0FrPjkX1AzLqW-231" value="" style="triangle;whiteSpace=wrap;html=1;" vertex="1" parent="RIsMsyV0FrPjkX1AzLqW-230">
          <mxGeometry width="156" height="208" as="geometry" />
        </mxCell>
        <mxCell id="RIsMsyV0FrPjkX1AzLqW-232" value="RegisterUsers" style="text;html=1;align=center;verticalAlign=middle;whiteSpace=wrap;rounded=0;" vertex="1" parent="RIsMsyV0FrPjkX1AzLqW-230">
          <mxGeometry x="24" y="89" width="60" height="30" as="geometry" />
        </mxCell>
        <mxCell id="RIsMsyV0FrPjkX1AzLqW-233" value="One/Many" style="ellipse;whiteSpace=wrap;html=1;" vertex="1" parent="RIsMsyV0FrPjkX1AzLqW-216">
          <mxGeometry x="182" y="23.99999999999993" width="80" height="80" as="geometry" />
        </mxCell>
        <mxCell id="RIsMsyV0FrPjkX1AzLqW-234" value="" style="edgeStyle=orthogonalEdgeStyle;rounded=0;orthogonalLoop=1;jettySize=auto;html=1;" edge="1" parent="RIsMsyV0FrPjkX1AzLqW-216" source="RIsMsyV0FrPjkX1AzLqW-231" target="RIsMsyV0FrPjkX1AzLqW-233">
          <mxGeometry relative="1" as="geometry" />
        </mxCell>
        <mxCell id="RIsMsyV0FrPjkX1AzLqW-308" value="" style="group" vertex="1" connectable="0" parent="RIsMsyV0FrPjkX1AzLqW-216">
          <mxGeometry x="522" y="132" width="156" height="208" as="geometry" />
        </mxCell>
        <mxCell id="RIsMsyV0FrPjkX1AzLqW-309" value="" style="group" vertex="1" connectable="0" parent="RIsMsyV0FrPjkX1AzLqW-308">
          <mxGeometry width="156" height="208" as="geometry" />
        </mxCell>
        <mxCell id="RIsMsyV0FrPjkX1AzLqW-313" value="" style="group" vertex="1" connectable="0" parent="RIsMsyV0FrPjkX1AzLqW-309">
          <mxGeometry width="156" height="208" as="geometry" />
        </mxCell>
        <mxCell id="RIsMsyV0FrPjkX1AzLqW-314" value="" style="group" vertex="1" connectable="0" parent="RIsMsyV0FrPjkX1AzLqW-313">
          <mxGeometry width="156" height="208" as="geometry" />
        </mxCell>
        <mxCell id="RIsMsyV0FrPjkX1AzLqW-310" value="" style="triangle;whiteSpace=wrap;html=1;" vertex="1" parent="RIsMsyV0FrPjkX1AzLqW-314">
          <mxGeometry width="156" height="208" as="geometry" />
        </mxCell>
        <mxCell id="RIsMsyV0FrPjkX1AzLqW-311" value="UpdateAdmin" style="text;html=1;align=center;verticalAlign=middle;whiteSpace=wrap;rounded=0;" vertex="1" parent="RIsMsyV0FrPjkX1AzLqW-314">
          <mxGeometry x="12" y="89" width="84" height="30" as="geometry" />
        </mxCell>
        <mxCell id="RIsMsyV0FrPjkX1AzLqW-447" value="" style="group" vertex="1" connectable="0" parent="RIsMsyV0FrPjkX1AzLqW-216">
          <mxGeometry x="912" y="132" width="156" height="208" as="geometry" />
        </mxCell>
        <mxCell id="RIsMsyV0FrPjkX1AzLqW-448" value="" style="group" vertex="1" connectable="0" parent="RIsMsyV0FrPjkX1AzLqW-447">
          <mxGeometry width="156" height="208" as="geometry" />
        </mxCell>
        <mxCell id="RIsMsyV0FrPjkX1AzLqW-449" value="" style="triangle;whiteSpace=wrap;html=1;" vertex="1" parent="RIsMsyV0FrPjkX1AzLqW-448">
          <mxGeometry width="156" height="208" as="geometry" />
        </mxCell>
        <mxCell id="RIsMsyV0FrPjkX1AzLqW-450" value="FetchUsers" style="text;html=1;align=center;verticalAlign=middle;whiteSpace=wrap;rounded=0;" vertex="1" parent="RIsMsyV0FrPjkX1AzLqW-448">
          <mxGeometry x="12" y="89" width="84" height="30" as="geometry" />
        </mxCell>
        <mxCell id="RIsMsyV0FrPjkX1AzLqW-256" style="edgeStyle=orthogonalEdgeStyle;rounded=0;orthogonalLoop=1;jettySize=auto;html=1;exitX=0.5;exitY=0;exitDx=0;exitDy=0;entryX=0.5;entryY=1;entryDx=0;entryDy=0;" edge="1" parent="1" source="RIsMsyV0FrPjkX1AzLqW-233" target="RIsMsyV0FrPjkX1AzLqW-203">
          <mxGeometry relative="1" as="geometry">
            <Array as="points">
              <mxPoint x="1230" y="1524" />
              <mxPoint x="1290" y="1524" />
            </Array>
          </mxGeometry>
        </mxCell>
        <mxCell id="RIsMsyV0FrPjkX1AzLqW-257" style="edgeStyle=orthogonalEdgeStyle;rounded=0;orthogonalLoop=1;jettySize=auto;html=1;exitX=0.5;exitY=0;exitDx=0;exitDy=0;entryX=0.5;entryY=1;entryDx=0;entryDy=0;" edge="1" parent="1" source="RIsMsyV0FrPjkX1AzLqW-233" target="RIsMsyV0FrPjkX1AzLqW-213">
          <mxGeometry relative="1" as="geometry">
            <Array as="points">
              <mxPoint x="1230" y="1524" />
              <mxPoint x="1110" y="1524" />
            </Array>
          </mxGeometry>
        </mxCell>
        <mxCell id="RIsMsyV0FrPjkX1AzLqW-258" style="edgeStyle=orthogonalEdgeStyle;rounded=0;orthogonalLoop=1;jettySize=auto;html=1;exitX=0.5;exitY=0;exitDx=0;exitDy=0;entryX=0.5;entryY=1;entryDx=0;entryDy=0;" edge="1" parent="1" source="RIsMsyV0FrPjkX1AzLqW-225" target="RIsMsyV0FrPjkX1AzLqW-206">
          <mxGeometry relative="1" as="geometry">
            <Array as="points">
              <mxPoint x="1428" y="1732" />
              <mxPoint x="1428" y="1692" />
              <mxPoint x="1470" y="1692" />
            </Array>
          </mxGeometry>
        </mxCell>
        <mxCell id="RIsMsyV0FrPjkX1AzLqW-259" style="edgeStyle=orthogonalEdgeStyle;rounded=0;orthogonalLoop=1;jettySize=auto;html=1;exitX=0.5;exitY=0;exitDx=0;exitDy=0;entryX=0.5;entryY=1;entryDx=0;entryDy=0;" edge="1" parent="1" source="RIsMsyV0FrPjkX1AzLqW-221" target="RIsMsyV0FrPjkX1AzLqW-199">
          <mxGeometry relative="1" as="geometry">
            <Array as="points">
              <mxPoint x="2178" y="1632" />
              <mxPoint x="2178" y="1632" />
            </Array>
          </mxGeometry>
        </mxCell>
        <mxCell id="RIsMsyV0FrPjkX1AzLqW-260" style="edgeStyle=orthogonalEdgeStyle;rounded=0;orthogonalLoop=1;jettySize=auto;html=1;exitX=0.5;exitY=0;exitDx=0;exitDy=0;entryX=0.5;entryY=1;entryDx=0;entryDy=0;" edge="1" parent="1" source="RIsMsyV0FrPjkX1AzLqW-228" target="RIsMsyV0FrPjkX1AzLqW-191">
          <mxGeometry relative="1" as="geometry">
            <Array as="points">
              <mxPoint x="1830" y="1732" />
            </Array>
          </mxGeometry>
        </mxCell>
        <mxCell id="RIsMsyV0FrPjkX1AzLqW-5" value="" style="rounded=0;whiteSpace=wrap;html=1;container=0;" vertex="1" parent="1">
          <mxGeometry x="306" y="2076" width="540" height="312" as="geometry" />
        </mxCell>
        <mxCell id="RIsMsyV0FrPjkX1AzLqW-6" value="Logs&amp;nbsp;Functionality" style="text;html=1;align=center;verticalAlign=middle;whiteSpace=wrap;rounded=0;fontSize=32;container=0;" vertex="1" parent="1">
          <mxGeometry x="334.15714285714284" y="2084.3076923076924" width="483.6857142857143" height="33.230769230769226" as="geometry" />
        </mxCell>
        <mxCell id="RIsMsyV0FrPjkX1AzLqW-263" style="edgeStyle=orthogonalEdgeStyle;rounded=0;orthogonalLoop=1;jettySize=auto;html=1;exitX=0.5;exitY=0;exitDx=0;exitDy=0;entryX=0.5;entryY=1;entryDx=0;entryDy=0;" edge="1" parent="1" source="RIsMsyV0FrPjkX1AzLqW-459" target="RIsMsyV0FrPjkX1AzLqW-128">
          <mxGeometry relative="1" as="geometry">
            <mxPoint x="423" y="2220" as="sourcePoint" />
            <Array as="points">
              <mxPoint x="444" y="2208" />
              <mxPoint x="408" y="2208" />
              <mxPoint x="408" y="2054" />
              <mxPoint x="573" y="2054" />
            </Array>
          </mxGeometry>
        </mxCell>
        <mxCell id="RIsMsyV0FrPjkX1AzLqW-264" style="edgeStyle=orthogonalEdgeStyle;rounded=0;orthogonalLoop=1;jettySize=auto;html=1;exitX=0.5;exitY=0;exitDx=0;exitDy=0;entryX=0.549;entryY=0.719;entryDx=0;entryDy=0;entryPerimeter=0;" edge="1" parent="1" source="RIsMsyV0FrPjkX1AzLqW-460" target="RIsMsyV0FrPjkX1AzLqW-106">
          <mxGeometry relative="1" as="geometry">
            <mxPoint x="690" y="2220" as="sourcePoint" />
            <Array as="points">
              <mxPoint x="696" y="2208" />
              <mxPoint x="756" y="2208" />
              <mxPoint x="756" y="2054" />
              <mxPoint x="791" y="2054" />
            </Array>
          </mxGeometry>
        </mxCell>
        <mxCell id="RIsMsyV0FrPjkX1AzLqW-265" style="edgeStyle=orthogonalEdgeStyle;rounded=0;orthogonalLoop=1;jettySize=auto;html=1;exitX=0.5;exitY=0;exitDx=0;exitDy=0;entryX=0.5;entryY=1;entryDx=0;entryDy=0;" edge="1" parent="1" source="RIsMsyV0FrPjkX1AzLqW-106" target="RIsMsyV0FrPjkX1AzLqW-74">
          <mxGeometry relative="1" as="geometry" />
        </mxCell>
        <mxCell id="RIsMsyV0FrPjkX1AzLqW-266" style="edgeStyle=orthogonalEdgeStyle;rounded=0;orthogonalLoop=1;jettySize=auto;html=1;exitX=0.5;exitY=0;exitDx=0;exitDy=0;entryX=0.5;entryY=1;entryDx=0;entryDy=0;" edge="1" parent="1" source="RIsMsyV0FrPjkX1AzLqW-128" target="RIsMsyV0FrPjkX1AzLqW-82">
          <mxGeometry relative="1" as="geometry">
            <Array as="points">
              <mxPoint x="573" y="1656" />
              <mxPoint x="732" y="1656" />
              <mxPoint x="732" y="1440" />
              <mxPoint x="573" y="1440" />
            </Array>
          </mxGeometry>
        </mxCell>
        <mxCell id="RIsMsyV0FrPjkX1AzLqW-177" value="" style="edgeStyle=orthogonalEdgeStyle;rounded=0;orthogonalLoop=1;jettySize=auto;html=1;" edge="1" parent="1" target="RIsMsyV0FrPjkX1AzLqW-71">
          <mxGeometry relative="1" as="geometry">
            <mxPoint x="599.9999999999995" y="1304" as="sourcePoint" />
          </mxGeometry>
        </mxCell>
        <mxCell id="RIsMsyV0FrPjkX1AzLqW-30" value="Logs 1st Services" style="text;html=1;align=center;verticalAlign=middle;whiteSpace=wrap;rounded=0;fontSize=32;" vertex="1" parent="1">
          <mxGeometry x="318.68571428571425" y="1088.076923076923" width="490.62857142857143" height="32.30769230769231" as="geometry" />
        </mxCell>
        <mxCell id="RIsMsyV0FrPjkX1AzLqW-80" value="" style="group" vertex="1" connectable="0" parent="1">
          <mxGeometry x="495" y="1212" width="156" height="208" as="geometry" />
        </mxCell>
        <mxCell id="RIsMsyV0FrPjkX1AzLqW-81" value="" style="group" vertex="1" connectable="0" parent="RIsMsyV0FrPjkX1AzLqW-80">
          <mxGeometry width="156" height="208" as="geometry" />
        </mxCell>
        <mxCell id="RIsMsyV0FrPjkX1AzLqW-82" value="" style="triangle;whiteSpace=wrap;html=1;" vertex="1" parent="RIsMsyV0FrPjkX1AzLqW-81">
          <mxGeometry width="156" height="208" as="geometry" />
        </mxCell>
        <mxCell id="RIsMsyV0FrPjkX1AzLqW-83" value="Find" style="text;html=1;align=center;verticalAlign=middle;whiteSpace=wrap;rounded=0;" vertex="1" parent="RIsMsyV0FrPjkX1AzLqW-81">
          <mxGeometry x="12" y="89" width="84" height="30" as="geometry" />
        </mxCell>
        <mxCell id="RIsMsyV0FrPjkX1AzLqW-72" value="" style="group" vertex="1" connectable="0" parent="1">
          <mxGeometry x="705" y="1212" width="156" height="208" as="geometry" />
        </mxCell>
        <mxCell id="RIsMsyV0FrPjkX1AzLqW-73" value="" style="group" vertex="1" connectable="0" parent="RIsMsyV0FrPjkX1AzLqW-72">
          <mxGeometry width="156" height="208" as="geometry" />
        </mxCell>
        <mxCell id="RIsMsyV0FrPjkX1AzLqW-74" value="" style="triangle;whiteSpace=wrap;html=1;" vertex="1" parent="RIsMsyV0FrPjkX1AzLqW-73">
          <mxGeometry width="156" height="208" as="geometry" />
        </mxCell>
        <mxCell id="RIsMsyV0FrPjkX1AzLqW-75" value="Remove" style="text;html=1;align=center;verticalAlign=middle;whiteSpace=wrap;rounded=0;" vertex="1" parent="RIsMsyV0FrPjkX1AzLqW-73">
          <mxGeometry x="12" y="89" width="84" height="30" as="geometry" />
        </mxCell>
        <mxCell id="RIsMsyV0FrPjkX1AzLqW-67" value="" style="group" vertex="1" connectable="0" parent="1">
          <mxGeometry x="291" y="1212" width="156" height="208" as="geometry" />
        </mxCell>
        <mxCell id="RIsMsyV0FrPjkX1AzLqW-53" value="" style="triangle;whiteSpace=wrap;html=1;" vertex="1" parent="RIsMsyV0FrPjkX1AzLqW-67">
          <mxGeometry width="156" height="208" as="geometry" />
        </mxCell>
        <mxCell id="RIsMsyV0FrPjkX1AzLqW-54" value="CreateMany" style="text;html=1;align=center;verticalAlign=middle;whiteSpace=wrap;rounded=0;" vertex="1" parent="RIsMsyV0FrPjkX1AzLqW-67">
          <mxGeometry x="12" y="89" width="84" height="30" as="geometry" />
        </mxCell>
        <mxCell id="RIsMsyV0FrPjkX1AzLqW-267" value="" style="group" vertex="1" connectable="0" parent="1">
          <mxGeometry x="60" y="1680" width="156" height="208" as="geometry" />
        </mxCell>
        <mxCell id="RIsMsyV0FrPjkX1AzLqW-268" value="" style="triangle;whiteSpace=wrap;html=1;" vertex="1" parent="RIsMsyV0FrPjkX1AzLqW-267">
          <mxGeometry width="156" height="208" as="geometry" />
        </mxCell>
        <mxCell id="RIsMsyV0FrPjkX1AzLqW-269" value="Any Service" style="text;html=1;align=center;verticalAlign=middle;whiteSpace=wrap;rounded=0;" vertex="1" parent="RIsMsyV0FrPjkX1AzLqW-267">
          <mxGeometry x="12" y="89" width="84" height="30" as="geometry" />
        </mxCell>
        <mxCell id="RIsMsyV0FrPjkX1AzLqW-103" value="Logs 2nd Services" style="text;html=1;align=center;verticalAlign=middle;whiteSpace=wrap;rounded=0;fontSize=32;" vertex="1" parent="1">
          <mxGeometry x="330.68571428571425" y="1556.076923076923" width="490.62857142857143" height="32.30769230769231" as="geometry" />
        </mxCell>
        <mxCell id="RIsMsyV0FrPjkX1AzLqW-104" value="" style="group" vertex="1" connectable="0" parent="1">
          <mxGeometry x="705" y="1680" width="156" height="208" as="geometry" />
        </mxCell>
        <mxCell id="RIsMsyV0FrPjkX1AzLqW-105" value="" style="group" vertex="1" connectable="0" parent="RIsMsyV0FrPjkX1AzLqW-104">
          <mxGeometry width="156" height="208" as="geometry" />
        </mxCell>
        <mxCell id="RIsMsyV0FrPjkX1AzLqW-106" value="" style="triangle;whiteSpace=wrap;html=1;" vertex="1" parent="RIsMsyV0FrPjkX1AzLqW-105">
          <mxGeometry width="156" height="208" as="geometry" />
        </mxCell>
        <mxCell id="RIsMsyV0FrPjkX1AzLqW-107" value="Clear Logs" style="text;html=1;align=center;verticalAlign=middle;whiteSpace=wrap;rounded=0;" vertex="1" parent="RIsMsyV0FrPjkX1AzLqW-105">
          <mxGeometry x="12" y="89" width="84" height="30" as="geometry" />
        </mxCell>
        <mxCell id="RIsMsyV0FrPjkX1AzLqW-160" value="" style="group" vertex="1" connectable="0" parent="1">
          <mxGeometry x="291" y="1680" width="156" height="232" as="geometry" />
        </mxCell>
        <mxCell id="RIsMsyV0FrPjkX1AzLqW-109" value="" style="triangle;whiteSpace=wrap;html=1;" vertex="1" parent="RIsMsyV0FrPjkX1AzLqW-160">
          <mxGeometry width="156" height="208" as="geometry" />
        </mxCell>
        <mxCell id="RIsMsyV0FrPjkX1AzLqW-110" value="Add Logs" style="text;html=1;align=center;verticalAlign=middle;whiteSpace=wrap;rounded=0;" vertex="1" parent="RIsMsyV0FrPjkX1AzLqW-160">
          <mxGeometry x="12" y="89" width="84" height="30" as="geometry" />
        </mxCell>
        <mxCell id="RIsMsyV0FrPjkX1AzLqW-127" value="" style="group" vertex="1" connectable="0" parent="1">
          <mxGeometry x="495" y="1680" width="156" height="208" as="geometry" />
        </mxCell>
        <mxCell id="RIsMsyV0FrPjkX1AzLqW-128" value="" style="triangle;whiteSpace=wrap;html=1;" vertex="1" parent="RIsMsyV0FrPjkX1AzLqW-127">
          <mxGeometry width="156" height="208" as="geometry" />
        </mxCell>
        <mxCell id="RIsMsyV0FrPjkX1AzLqW-129" value="Fetch Logs" style="text;html=1;align=center;verticalAlign=middle;whiteSpace=wrap;rounded=0;" vertex="1" parent="RIsMsyV0FrPjkX1AzLqW-127">
          <mxGeometry x="24" y="89" width="60" height="30" as="geometry" />
        </mxCell>
        <mxCell id="RIsMsyV0FrPjkX1AzLqW-271" value="" style="edgeStyle=orthogonalEdgeStyle;rounded=0;orthogonalLoop=1;jettySize=auto;html=1;" edge="1" parent="1" source="RIsMsyV0FrPjkX1AzLqW-268" target="RIsMsyV0FrPjkX1AzLqW-110">
          <mxGeometry relative="1" as="geometry" />
        </mxCell>
        <mxCell id="RIsMsyV0FrPjkX1AzLqW-273" style="edgeStyle=orthogonalEdgeStyle;rounded=0;orthogonalLoop=1;jettySize=auto;html=1;exitX=0.5;exitY=0;exitDx=0;exitDy=0;entryX=0.5;entryY=1;entryDx=0;entryDy=0;" edge="1" parent="1" source="RIsMsyV0FrPjkX1AzLqW-109" target="RIsMsyV0FrPjkX1AzLqW-53">
          <mxGeometry relative="1" as="geometry" />
        </mxCell>
        <mxCell id="RIsMsyV0FrPjkX1AzLqW-236" value="" style="rounded=0;whiteSpace=wrap;html=1;container=0;" vertex="1" parent="1">
          <mxGeometry x="984" y="2084.31" width="1284" height="360" as="geometry" />
        </mxCell>
        <mxCell id="RIsMsyV0FrPjkX1AzLqW-237" value="Users Functionality" style="text;html=1;align=center;verticalAlign=middle;whiteSpace=wrap;rounded=0;fontSize=32;container=0;" vertex="1" parent="1">
          <mxGeometry x="1384.1571428571428" y="2375.9976923076924" width="483.6857142857143" height="33.230769230769226" as="geometry" />
        </mxCell>
        <mxCell id="RIsMsyV0FrPjkX1AzLqW-333" style="edgeStyle=orthogonalEdgeStyle;rounded=0;orthogonalLoop=1;jettySize=auto;html=1;exitX=0.5;exitY=0;exitDx=0;exitDy=0;entryX=0.5;entryY=1;entryDx=0;entryDy=0;" edge="1" parent="1" source="RIsMsyV0FrPjkX1AzLqW-462" target="RIsMsyV0FrPjkX1AzLqW-231">
          <mxGeometry relative="1" as="geometry">
            <mxPoint x="1212" y="2256" as="sourcePoint" />
          </mxGeometry>
        </mxCell>
        <mxCell id="RIsMsyV0FrPjkX1AzLqW-332" style="edgeStyle=orthogonalEdgeStyle;rounded=0;orthogonalLoop=1;jettySize=auto;html=1;exitX=0.5;exitY=0;exitDx=0;exitDy=0;entryX=0.5;entryY=1;entryDx=0;entryDy=0;" edge="1" parent="1" source="RIsMsyV0FrPjkX1AzLqW-461" target="RIsMsyV0FrPjkX1AzLqW-231">
          <mxGeometry relative="1" as="geometry">
            <mxPoint x="984" y="2256" as="sourcePoint" />
          </mxGeometry>
        </mxCell>
        <mxCell id="RIsMsyV0FrPjkX1AzLqW-334" style="edgeStyle=orthogonalEdgeStyle;rounded=0;orthogonalLoop=1;jettySize=auto;html=1;exitX=0.5;exitY=0;exitDx=0;exitDy=0;entryX=0.5;entryY=1;entryDx=0;entryDy=0;" edge="1" parent="1" source="RIsMsyV0FrPjkX1AzLqW-463" target="RIsMsyV0FrPjkX1AzLqW-225">
          <mxGeometry relative="1" as="geometry">
            <mxPoint x="1440" y="2256" as="sourcePoint" />
          </mxGeometry>
        </mxCell>
        <mxCell id="RIsMsyV0FrPjkX1AzLqW-335" style="edgeStyle=orthogonalEdgeStyle;rounded=0;orthogonalLoop=1;jettySize=auto;html=1;exitX=0.5;exitY=0;exitDx=0;exitDy=0;entryX=0.5;entryY=1;entryDx=0;entryDy=0;" edge="1" parent="1" source="RIsMsyV0FrPjkX1AzLqW-464" target="RIsMsyV0FrPjkX1AzLqW-225">
          <mxGeometry relative="1" as="geometry">
            <mxPoint x="1674" y="2256" as="sourcePoint" />
          </mxGeometry>
        </mxCell>
        <mxCell id="RIsMsyV0FrPjkX1AzLqW-336" style="edgeStyle=orthogonalEdgeStyle;rounded=0;orthogonalLoop=1;jettySize=auto;html=1;exitX=0.5;exitY=0;exitDx=0;exitDy=0;entryX=0.5;entryY=1;entryDx=0;entryDy=0;" edge="1" parent="1" source="RIsMsyV0FrPjkX1AzLqW-465" target="RIsMsyV0FrPjkX1AzLqW-310">
          <mxGeometry relative="1" as="geometry">
            <mxPoint x="1884" y="2256" as="sourcePoint" />
            <Array as="points">
              <mxPoint x="1674" y="2064" />
              <mxPoint x="1596" y="2064" />
            </Array>
          </mxGeometry>
        </mxCell>
        <mxCell id="RIsMsyV0FrPjkX1AzLqW-337" style="edgeStyle=orthogonalEdgeStyle;rounded=0;orthogonalLoop=1;jettySize=auto;html=1;exitX=0.5;exitY=0;exitDx=0;exitDy=0;entryX=0.5;entryY=1;entryDx=0;entryDy=0;" edge="1" parent="1" source="RIsMsyV0FrPjkX1AzLqW-466" target="RIsMsyV0FrPjkX1AzLqW-228">
          <mxGeometry relative="1" as="geometry">
            <mxPoint x="2094" y="2256" as="sourcePoint" />
            <Array as="points">
              <mxPoint x="1806" y="2052" />
              <mxPoint x="1794" y="2052" />
            </Array>
          </mxGeometry>
        </mxCell>
        <mxCell id="RIsMsyV0FrPjkX1AzLqW-339" value="Roles" style="shape=cylinder3;whiteSpace=wrap;html=1;boundedLbl=1;backgroundOutline=1;size=15;" vertex="1" parent="1">
          <mxGeometry x="2982" y="840" width="108" height="168" as="geometry" />
        </mxCell>
        <mxCell id="RIsMsyV0FrPjkX1AzLqW-340" value="" style="edgeStyle=orthogonalEdgeStyle;rounded=0;orthogonalLoop=1;jettySize=auto;html=1;" edge="1" parent="1" source="RIsMsyV0FrPjkX1AzLqW-344" target="RIsMsyV0FrPjkX1AzLqW-339">
          <mxGeometry relative="1" as="geometry" />
        </mxCell>
        <mxCell id="RIsMsyV0FrPjkX1AzLqW-341" value="" style="group" vertex="1" connectable="0" parent="1">
          <mxGeometry x="2400" y="1080" width="1272" height="420" as="geometry" />
        </mxCell>
        <mxCell id="RIsMsyV0FrPjkX1AzLqW-342" value="" style="group" vertex="1" connectable="0" parent="RIsMsyV0FrPjkX1AzLqW-341">
          <mxGeometry width="1272" height="420" as="geometry" />
        </mxCell>
        <mxCell id="RIsMsyV0FrPjkX1AzLqW-343" value="" style="rounded=0;whiteSpace=wrap;html=1;fillColor=#330000;" vertex="1" parent="RIsMsyV0FrPjkX1AzLqW-342">
          <mxGeometry width="1272" height="420.00000000000006" as="geometry" />
        </mxCell>
        <mxCell id="RIsMsyV0FrPjkX1AzLqW-344" value="Roles 1st Services" style="text;html=1;align=center;verticalAlign=middle;whiteSpace=wrap;rounded=0;fontSize=32;" vertex="1" parent="RIsMsyV0FrPjkX1AzLqW-342">
          <mxGeometry x="390.68571428571425" y="8.076923076923077" width="490.62857142857143" height="32.30769230769231" as="geometry" />
        </mxCell>
        <mxCell id="RIsMsyV0FrPjkX1AzLqW-345" value="" style="group" vertex="1" connectable="0" parent="RIsMsyV0FrPjkX1AzLqW-342">
          <mxGeometry x="756" y="132" width="156" height="208" as="geometry" />
        </mxCell>
        <mxCell id="RIsMsyV0FrPjkX1AzLqW-346" value="" style="group" vertex="1" connectable="0" parent="RIsMsyV0FrPjkX1AzLqW-345">
          <mxGeometry width="156" height="208" as="geometry" />
        </mxCell>
        <mxCell id="RIsMsyV0FrPjkX1AzLqW-347" value="" style="triangle;whiteSpace=wrap;html=1;" vertex="1" parent="RIsMsyV0FrPjkX1AzLqW-346">
          <mxGeometry width="156" height="208" as="geometry" />
        </mxCell>
        <mxCell id="RIsMsyV0FrPjkX1AzLqW-348" value="Find" style="text;html=1;align=center;verticalAlign=middle;whiteSpace=wrap;rounded=0;" vertex="1" parent="RIsMsyV0FrPjkX1AzLqW-346">
          <mxGeometry x="12" y="89" width="84" height="30" as="geometry" />
        </mxCell>
        <mxCell id="RIsMsyV0FrPjkX1AzLqW-349" value="" style="group" vertex="1" connectable="0" parent="RIsMsyV0FrPjkX1AzLqW-342">
          <mxGeometry x="924" y="132" width="156" height="208" as="geometry" />
        </mxCell>
        <mxCell id="RIsMsyV0FrPjkX1AzLqW-350" value="" style="group" vertex="1" connectable="0" parent="RIsMsyV0FrPjkX1AzLqW-349">
          <mxGeometry width="156" height="208" as="geometry" />
        </mxCell>
        <mxCell id="RIsMsyV0FrPjkX1AzLqW-351" value="" style="triangle;whiteSpace=wrap;html=1;" vertex="1" parent="RIsMsyV0FrPjkX1AzLqW-350">
          <mxGeometry width="156" height="208" as="geometry" />
        </mxCell>
        <mxCell id="RIsMsyV0FrPjkX1AzLqW-352" value="FindById" style="text;html=1;align=center;verticalAlign=middle;whiteSpace=wrap;rounded=0;" vertex="1" parent="RIsMsyV0FrPjkX1AzLqW-350">
          <mxGeometry x="12" y="89" width="84" height="30" as="geometry" />
        </mxCell>
        <mxCell id="RIsMsyV0FrPjkX1AzLqW-353" value="" style="group" vertex="1" connectable="0" parent="RIsMsyV0FrPjkX1AzLqW-342">
          <mxGeometry x="1104" y="132" width="156" height="208" as="geometry" />
        </mxCell>
        <mxCell id="RIsMsyV0FrPjkX1AzLqW-354" value="" style="group" vertex="1" connectable="0" parent="RIsMsyV0FrPjkX1AzLqW-353">
          <mxGeometry width="156" height="208" as="geometry" />
        </mxCell>
        <mxCell id="RIsMsyV0FrPjkX1AzLqW-355" value="" style="triangle;whiteSpace=wrap;html=1;" vertex="1" parent="RIsMsyV0FrPjkX1AzLqW-354">
          <mxGeometry width="156" height="208" as="geometry" />
        </mxCell>
        <mxCell id="RIsMsyV0FrPjkX1AzLqW-356" value="Remove" style="text;html=1;align=center;verticalAlign=middle;whiteSpace=wrap;rounded=0;" vertex="1" parent="RIsMsyV0FrPjkX1AzLqW-354">
          <mxGeometry x="12" y="89" width="84" height="30" as="geometry" />
        </mxCell>
        <mxCell id="RIsMsyV0FrPjkX1AzLqW-357" value="" style="group" vertex="1" connectable="0" parent="RIsMsyV0FrPjkX1AzLqW-341">
          <mxGeometry x="216" y="132" width="156" height="208" as="geometry" />
        </mxCell>
        <mxCell id="RIsMsyV0FrPjkX1AzLqW-358" value="" style="group" vertex="1" connectable="0" parent="RIsMsyV0FrPjkX1AzLqW-357">
          <mxGeometry width="156" height="208" as="geometry" />
        </mxCell>
        <mxCell id="RIsMsyV0FrPjkX1AzLqW-359" value="" style="triangle;whiteSpace=wrap;html=1;" vertex="1" parent="RIsMsyV0FrPjkX1AzLqW-358">
          <mxGeometry width="156" height="208" as="geometry" />
        </mxCell>
        <mxCell id="RIsMsyV0FrPjkX1AzLqW-360" value="CreateMany" style="text;html=1;align=center;verticalAlign=middle;whiteSpace=wrap;rounded=0;" vertex="1" parent="RIsMsyV0FrPjkX1AzLqW-358">
          <mxGeometry x="12" y="89" width="84" height="30" as="geometry" />
        </mxCell>
        <mxCell id="RIsMsyV0FrPjkX1AzLqW-361" value="" style="group" vertex="1" connectable="0" parent="RIsMsyV0FrPjkX1AzLqW-341">
          <mxGeometry x="396" y="132" width="156" height="208" as="geometry" />
        </mxCell>
        <mxCell id="RIsMsyV0FrPjkX1AzLqW-362" value="" style="triangle;whiteSpace=wrap;html=1;" vertex="1" parent="RIsMsyV0FrPjkX1AzLqW-361">
          <mxGeometry width="156" height="208" as="geometry" />
        </mxCell>
        <mxCell id="RIsMsyV0FrPjkX1AzLqW-363" value="UpdateMany" style="text;html=1;align=center;verticalAlign=middle;whiteSpace=wrap;rounded=0;" vertex="1" parent="RIsMsyV0FrPjkX1AzLqW-361">
          <mxGeometry x="12" y="89" width="84" height="30" as="geometry" />
        </mxCell>
        <mxCell id="RIsMsyV0FrPjkX1AzLqW-364" value="" style="group" vertex="1" connectable="0" parent="RIsMsyV0FrPjkX1AzLqW-341">
          <mxGeometry x="576" y="132" width="156" height="208" as="geometry" />
        </mxCell>
        <mxCell id="RIsMsyV0FrPjkX1AzLqW-365" value="" style="group" vertex="1" connectable="0" parent="RIsMsyV0FrPjkX1AzLqW-364">
          <mxGeometry width="156" height="208" as="geometry" />
        </mxCell>
        <mxCell id="RIsMsyV0FrPjkX1AzLqW-366" value="" style="triangle;whiteSpace=wrap;html=1;" vertex="1" parent="RIsMsyV0FrPjkX1AzLqW-365">
          <mxGeometry width="156" height="208" as="geometry" />
        </mxCell>
        <mxCell id="RIsMsyV0FrPjkX1AzLqW-367" value="UpdateOne" style="text;html=1;align=center;verticalAlign=middle;whiteSpace=wrap;rounded=0;" vertex="1" parent="RIsMsyV0FrPjkX1AzLqW-365">
          <mxGeometry x="12" y="89" width="84" height="30" as="geometry" />
        </mxCell>
        <mxCell id="RIsMsyV0FrPjkX1AzLqW-368" value="" style="group" vertex="1" connectable="0" parent="RIsMsyV0FrPjkX1AzLqW-341">
          <mxGeometry x="36" y="132" width="156" height="208" as="geometry" />
        </mxCell>
        <mxCell id="RIsMsyV0FrPjkX1AzLqW-369" value="" style="triangle;whiteSpace=wrap;html=1;" vertex="1" parent="RIsMsyV0FrPjkX1AzLqW-368">
          <mxGeometry width="156" height="208" as="geometry" />
        </mxCell>
        <mxCell id="RIsMsyV0FrPjkX1AzLqW-370" value="Create" style="text;html=1;align=center;verticalAlign=middle;whiteSpace=wrap;rounded=0;" vertex="1" parent="RIsMsyV0FrPjkX1AzLqW-368">
          <mxGeometry x="24" y="89" width="60" height="30" as="geometry" />
        </mxCell>
        <mxCell id="RIsMsyV0FrPjkX1AzLqW-371" value="" style="edgeStyle=orthogonalEdgeStyle;rounded=0;orthogonalLoop=1;jettySize=auto;html=1;" edge="1" parent="RIsMsyV0FrPjkX1AzLqW-341" source="RIsMsyV0FrPjkX1AzLqW-362" target="RIsMsyV0FrPjkX1AzLqW-367">
          <mxGeometry relative="1" as="geometry" />
        </mxCell>
        <mxCell id="RIsMsyV0FrPjkX1AzLqW-372" value="" style="group" vertex="1" connectable="0" parent="1">
          <mxGeometry x="2412" y="1548" width="1272" height="420" as="geometry" />
        </mxCell>
        <mxCell id="RIsMsyV0FrPjkX1AzLqW-373" value="" style="rounded=0;whiteSpace=wrap;html=1;fillColor=#333300;" vertex="1" parent="RIsMsyV0FrPjkX1AzLqW-372">
          <mxGeometry width="1272" height="420.00000000000006" as="geometry" />
        </mxCell>
        <mxCell id="RIsMsyV0FrPjkX1AzLqW-374" value="Roles 2nd Services" style="text;html=1;align=center;verticalAlign=middle;whiteSpace=wrap;rounded=0;fontSize=32;" vertex="1" parent="RIsMsyV0FrPjkX1AzLqW-372">
          <mxGeometry x="390.68571428571425" y="8.076923076923077" width="490.62857142857143" height="32.30769230769231" as="geometry" />
        </mxCell>
        <mxCell id="RIsMsyV0FrPjkX1AzLqW-375" value="" style="group" vertex="1" connectable="0" parent="RIsMsyV0FrPjkX1AzLqW-372">
          <mxGeometry x="1092" y="132" width="156" height="208" as="geometry" />
        </mxCell>
        <mxCell id="RIsMsyV0FrPjkX1AzLqW-376" value="" style="group" vertex="1" connectable="0" parent="RIsMsyV0FrPjkX1AzLqW-375">
          <mxGeometry width="156" height="208" as="geometry" />
        </mxCell>
        <mxCell id="RIsMsyV0FrPjkX1AzLqW-377" value="" style="triangle;whiteSpace=wrap;html=1;" vertex="1" parent="RIsMsyV0FrPjkX1AzLqW-376">
          <mxGeometry width="156" height="208" as="geometry" />
        </mxCell>
        <mxCell id="RIsMsyV0FrPjkX1AzLqW-378" value="RemoveRoles" style="text;html=1;align=center;verticalAlign=middle;whiteSpace=wrap;rounded=0;" vertex="1" parent="RIsMsyV0FrPjkX1AzLqW-376">
          <mxGeometry x="12" y="89" width="84" height="30" as="geometry" />
        </mxCell>
        <mxCell id="RIsMsyV0FrPjkX1AzLqW-379" value="" style="group" vertex="1" connectable="0" parent="RIsMsyV0FrPjkX1AzLqW-372">
          <mxGeometry x="384" y="132" width="156" height="208" as="geometry" />
        </mxCell>
        <mxCell id="RIsMsyV0FrPjkX1AzLqW-380" value="" style="group" vertex="1" connectable="0" parent="RIsMsyV0FrPjkX1AzLqW-379">
          <mxGeometry width="156" height="208" as="geometry" />
        </mxCell>
        <mxCell id="RIsMsyV0FrPjkX1AzLqW-381" value="" style="triangle;whiteSpace=wrap;html=1;" vertex="1" parent="RIsMsyV0FrPjkX1AzLqW-380">
          <mxGeometry width="156" height="208" as="geometry" />
        </mxCell>
        <mxCell id="RIsMsyV0FrPjkX1AzLqW-382" value="UpdateRoles" style="text;html=1;align=center;verticalAlign=middle;whiteSpace=wrap;rounded=0;" vertex="1" parent="RIsMsyV0FrPjkX1AzLqW-380">
          <mxGeometry x="12" y="89" width="84" height="30" as="geometry" />
        </mxCell>
        <mxCell id="RIsMsyV0FrPjkX1AzLqW-386" value="" style="group" vertex="1" connectable="0" parent="RIsMsyV0FrPjkX1AzLqW-372">
          <mxGeometry x="144" y="132" width="156" height="208" as="geometry" />
        </mxCell>
        <mxCell id="RIsMsyV0FrPjkX1AzLqW-387" value="" style="triangle;whiteSpace=wrap;html=1;" vertex="1" parent="RIsMsyV0FrPjkX1AzLqW-386">
          <mxGeometry width="156" height="208" as="geometry" />
        </mxCell>
        <mxCell id="RIsMsyV0FrPjkX1AzLqW-388" value="RegisterRoles" style="text;html=1;align=center;verticalAlign=middle;whiteSpace=wrap;rounded=0;" vertex="1" parent="RIsMsyV0FrPjkX1AzLqW-386">
          <mxGeometry x="24" y="89" width="60" height="30" as="geometry" />
        </mxCell>
        <mxCell id="RIsMsyV0FrPjkX1AzLqW-389" value="One/Many" style="ellipse;whiteSpace=wrap;html=1;" vertex="1" parent="RIsMsyV0FrPjkX1AzLqW-372">
          <mxGeometry x="182" y="23.99999999999993" width="80" height="80" as="geometry" />
        </mxCell>
        <mxCell id="RIsMsyV0FrPjkX1AzLqW-390" value="" style="edgeStyle=orthogonalEdgeStyle;rounded=0;orthogonalLoop=1;jettySize=auto;html=1;" edge="1" parent="RIsMsyV0FrPjkX1AzLqW-372" source="RIsMsyV0FrPjkX1AzLqW-387" target="RIsMsyV0FrPjkX1AzLqW-389">
          <mxGeometry relative="1" as="geometry" />
        </mxCell>
        <mxCell id="RIsMsyV0FrPjkX1AzLqW-488" value="" style="group" vertex="1" connectable="0" parent="RIsMsyV0FrPjkX1AzLqW-372">
          <mxGeometry x="744" y="132" width="156" height="208" as="geometry" />
        </mxCell>
        <mxCell id="RIsMsyV0FrPjkX1AzLqW-489" value="" style="group" vertex="1" connectable="0" parent="RIsMsyV0FrPjkX1AzLqW-488">
          <mxGeometry width="156" height="208" as="geometry" />
        </mxCell>
        <mxCell id="RIsMsyV0FrPjkX1AzLqW-490" value="" style="triangle;whiteSpace=wrap;html=1;" vertex="1" parent="RIsMsyV0FrPjkX1AzLqW-489">
          <mxGeometry width="156" height="208" as="geometry" />
        </mxCell>
        <mxCell id="RIsMsyV0FrPjkX1AzLqW-491" value="FetchRoles" style="text;html=1;align=center;verticalAlign=middle;whiteSpace=wrap;rounded=0;" vertex="1" parent="RIsMsyV0FrPjkX1AzLqW-489">
          <mxGeometry x="12" y="89" width="84" height="30" as="geometry" />
        </mxCell>
        <mxCell id="RIsMsyV0FrPjkX1AzLqW-397" style="edgeStyle=orthogonalEdgeStyle;rounded=0;orthogonalLoop=1;jettySize=auto;html=1;exitX=0.5;exitY=0;exitDx=0;exitDy=0;entryX=0.5;entryY=1;entryDx=0;entryDy=0;" edge="1" parent="1" source="RIsMsyV0FrPjkX1AzLqW-389" target="RIsMsyV0FrPjkX1AzLqW-359">
          <mxGeometry relative="1" as="geometry">
            <Array as="points">
              <mxPoint x="2634" y="1524" />
              <mxPoint x="2694" y="1524" />
            </Array>
          </mxGeometry>
        </mxCell>
        <mxCell id="RIsMsyV0FrPjkX1AzLqW-398" style="edgeStyle=orthogonalEdgeStyle;rounded=0;orthogonalLoop=1;jettySize=auto;html=1;exitX=0.5;exitY=0;exitDx=0;exitDy=0;entryX=0.5;entryY=1;entryDx=0;entryDy=0;" edge="1" parent="1" source="RIsMsyV0FrPjkX1AzLqW-389" target="RIsMsyV0FrPjkX1AzLqW-369">
          <mxGeometry relative="1" as="geometry">
            <Array as="points">
              <mxPoint x="2634" y="1524" />
              <mxPoint x="2514" y="1524" />
            </Array>
          </mxGeometry>
        </mxCell>
        <mxCell id="RIsMsyV0FrPjkX1AzLqW-400" style="edgeStyle=orthogonalEdgeStyle;rounded=0;orthogonalLoop=1;jettySize=auto;html=1;exitX=0.5;exitY=0;exitDx=0;exitDy=0;entryX=0.5;entryY=1;entryDx=0;entryDy=0;" edge="1" parent="1" source="RIsMsyV0FrPjkX1AzLqW-377" target="RIsMsyV0FrPjkX1AzLqW-355">
          <mxGeometry relative="1" as="geometry">
            <Array as="points">
              <mxPoint x="3582" y="1620" />
              <mxPoint x="3582" y="1620" />
            </Array>
          </mxGeometry>
        </mxCell>
        <mxCell id="RIsMsyV0FrPjkX1AzLqW-402" value="" style="rounded=0;whiteSpace=wrap;html=1;container=0;" vertex="1" parent="1">
          <mxGeometry x="2412" y="2085" width="1272" height="360" as="geometry" />
        </mxCell>
        <mxCell id="RIsMsyV0FrPjkX1AzLqW-403" value="Roles Functionality" style="text;html=1;align=center;verticalAlign=middle;whiteSpace=wrap;rounded=0;fontSize=32;container=0;" vertex="1" parent="1">
          <mxGeometry x="2872.157142857143" y="2399.9976923076924" width="483.6857142857143" height="33.230769230769226" as="geometry" />
        </mxCell>
        <mxCell id="RIsMsyV0FrPjkX1AzLqW-458" style="edgeStyle=orthogonalEdgeStyle;rounded=0;orthogonalLoop=1;jettySize=auto;html=1;exitX=0.5;exitY=0;exitDx=0;exitDy=0;entryX=0.5;entryY=1;entryDx=0;entryDy=0;" edge="1" parent="1" source="RIsMsyV0FrPjkX1AzLqW-500" target="RIsMsyV0FrPjkX1AzLqW-377">
          <mxGeometry relative="1" as="geometry">
            <mxPoint x="3696" y="2256" as="sourcePoint" />
          </mxGeometry>
        </mxCell>
        <mxCell id="RIsMsyV0FrPjkX1AzLqW-454" style="edgeStyle=orthogonalEdgeStyle;rounded=0;orthogonalLoop=1;jettySize=auto;html=1;exitX=0.5;exitY=0;exitDx=0;exitDy=0;entryX=0.5;entryY=1;entryDx=0;entryDy=0;" edge="1" parent="1" source="RIsMsyV0FrPjkX1AzLqW-496" target="RIsMsyV0FrPjkX1AzLqW-387">
          <mxGeometry relative="1" as="geometry">
            <mxPoint x="2760" y="2256" as="sourcePoint" />
          </mxGeometry>
        </mxCell>
        <mxCell id="RIsMsyV0FrPjkX1AzLqW-494" style="edgeStyle=orthogonalEdgeStyle;rounded=0;orthogonalLoop=1;jettySize=auto;html=1;exitX=0.5;exitY=0;exitDx=0;exitDy=0;entryX=0.5;entryY=1;entryDx=0;entryDy=0;" edge="1" parent="1" source="RIsMsyV0FrPjkX1AzLqW-499" target="RIsMsyV0FrPjkX1AzLqW-490">
          <mxGeometry relative="1" as="geometry">
            <mxPoint x="3456" y="2256" as="sourcePoint" />
          </mxGeometry>
        </mxCell>
        <mxCell id="RIsMsyV0FrPjkX1AzLqW-436" style="edgeStyle=orthogonalEdgeStyle;rounded=0;orthogonalLoop=1;jettySize=auto;html=1;exitX=0.5;exitY=0;exitDx=0;exitDy=0;entryX=0.5;entryY=1;entryDx=0;entryDy=0;" edge="1" parent="1" source="RIsMsyV0FrPjkX1AzLqW-310" target="RIsMsyV0FrPjkX1AzLqW-210">
          <mxGeometry relative="1" as="geometry" />
        </mxCell>
        <mxCell id="RIsMsyV0FrPjkX1AzLqW-451" style="edgeStyle=orthogonalEdgeStyle;rounded=0;orthogonalLoop=1;jettySize=auto;html=1;exitX=0.5;exitY=0;exitDx=0;exitDy=0;entryX=0.5;entryY=1;entryDx=0;entryDy=0;" edge="1" parent="1" source="RIsMsyV0FrPjkX1AzLqW-449" target="RIsMsyV0FrPjkX1AzLqW-191">
          <mxGeometry relative="1" as="geometry">
            <Array as="points">
              <mxPoint x="1998" y="1656" />
              <mxPoint x="1830" y="1656" />
            </Array>
          </mxGeometry>
        </mxCell>
        <mxCell id="RIsMsyV0FrPjkX1AzLqW-453" style="edgeStyle=orthogonalEdgeStyle;rounded=0;orthogonalLoop=1;jettySize=auto;html=1;exitX=0.5;exitY=0;exitDx=0;exitDy=0;entryX=0.5;entryY=1;entryDx=0;entryDy=0;" edge="1" parent="1" source="RIsMsyV0FrPjkX1AzLqW-495" target="RIsMsyV0FrPjkX1AzLqW-387">
          <mxGeometry relative="1" as="geometry">
            <mxPoint x="2532" y="2256" as="sourcePoint" />
          </mxGeometry>
        </mxCell>
        <mxCell id="RIsMsyV0FrPjkX1AzLqW-455" style="edgeStyle=orthogonalEdgeStyle;rounded=0;orthogonalLoop=1;jettySize=auto;html=1;entryX=0.5;entryY=1;entryDx=0;entryDy=0;exitX=0.5;exitY=0;exitDx=0;exitDy=0;" edge="1" parent="1" source="RIsMsyV0FrPjkX1AzLqW-497" target="RIsMsyV0FrPjkX1AzLqW-381">
          <mxGeometry relative="1" as="geometry">
            <mxPoint x="2988" y="2256" as="sourcePoint" />
          </mxGeometry>
        </mxCell>
        <mxCell id="RIsMsyV0FrPjkX1AzLqW-457" style="edgeStyle=orthogonalEdgeStyle;rounded=0;orthogonalLoop=1;jettySize=auto;html=1;exitX=0.5;exitY=0;exitDx=0;exitDy=0;entryX=0.5;entryY=1;entryDx=0;entryDy=0;" edge="1" parent="1" source="RIsMsyV0FrPjkX1AzLqW-498" target="RIsMsyV0FrPjkX1AzLqW-381">
          <mxGeometry relative="1" as="geometry">
            <mxPoint x="3222" y="2256" as="sourcePoint" />
          </mxGeometry>
        </mxCell>
        <mxCell id="RIsMsyV0FrPjkX1AzLqW-459" value="ViewLogs" style="rounded=0;whiteSpace=wrap;html=1;" vertex="1" parent="1">
          <mxGeometry x="384" y="2235" width="120" height="60" as="geometry" />
        </mxCell>
        <mxCell id="RIsMsyV0FrPjkX1AzLqW-460" value="ClearLogs" style="rounded=0;whiteSpace=wrap;html=1;" vertex="1" parent="1">
          <mxGeometry x="636" y="2235" width="120" height="60" as="geometry" />
        </mxCell>
        <mxCell id="RIsMsyV0FrPjkX1AzLqW-461" value="CreateUser" style="rounded=0;whiteSpace=wrap;html=1;" vertex="1" parent="1">
          <mxGeometry x="1002" y="2234.31" width="120" height="60" as="geometry" />
        </mxCell>
        <mxCell id="RIsMsyV0FrPjkX1AzLqW-462" value="CreateManyUsers" style="rounded=0;whiteSpace=wrap;html=1;" vertex="1" parent="1">
          <mxGeometry x="1134" y="2234.31" width="120" height="60" as="geometry" />
        </mxCell>
        <mxCell id="RIsMsyV0FrPjkX1AzLqW-463" value="Modify User&#39;s Permissinos, roles, data, or etc" style="rounded=0;whiteSpace=wrap;html=1;" vertex="1" parent="1">
          <mxGeometry x="1347" y="2234.31" width="120" height="60" as="geometry" />
        </mxCell>
        <mxCell id="RIsMsyV0FrPjkX1AzLqW-464" value="ModifyManyUsers" style="rounded=0;whiteSpace=wrap;html=1;" vertex="1" parent="1">
          <mxGeometry x="1482" y="2234.31" width="120" height="60" as="geometry" />
        </mxCell>
        <mxCell id="RIsMsyV0FrPjkX1AzLqW-465" value="ModifyAdminUser" style="rounded=0;whiteSpace=wrap;html=1;" vertex="1" parent="1">
          <mxGeometry x="1614" y="2234.31" width="120" height="60" as="geometry" />
        </mxCell>
        <mxCell id="RIsMsyV0FrPjkX1AzLqW-466" value="Login" style="rounded=0;whiteSpace=wrap;html=1;" vertex="1" parent="1">
          <mxGeometry x="1746" y="2235" width="120" height="60" as="geometry" />
        </mxCell>
        <mxCell id="RIsMsyV0FrPjkX1AzLqW-468" style="edgeStyle=orthogonalEdgeStyle;rounded=0;orthogonalLoop=1;jettySize=auto;html=1;exitX=0.5;exitY=0;exitDx=0;exitDy=0;entryX=0.5;entryY=1;entryDx=0;entryDy=0;" edge="1" parent="1" source="RIsMsyV0FrPjkX1AzLqW-467" target="RIsMsyV0FrPjkX1AzLqW-449">
          <mxGeometry relative="1" as="geometry" />
        </mxCell>
        <mxCell id="RIsMsyV0FrPjkX1AzLqW-467" value="FetchUsers" style="rounded=0;whiteSpace=wrap;html=1;" vertex="1" parent="1">
          <mxGeometry x="1926" y="2234.31" width="120" height="60" as="geometry" />
        </mxCell>
        <mxCell id="RIsMsyV0FrPjkX1AzLqW-470" style="edgeStyle=orthogonalEdgeStyle;rounded=0;orthogonalLoop=1;jettySize=auto;html=1;exitX=0.5;exitY=0;exitDx=0;exitDy=0;entryX=0.5;entryY=1;entryDx=0;entryDy=0;" edge="1" parent="1" source="RIsMsyV0FrPjkX1AzLqW-469" target="RIsMsyV0FrPjkX1AzLqW-221">
          <mxGeometry relative="1" as="geometry" />
        </mxCell>
        <mxCell id="RIsMsyV0FrPjkX1AzLqW-469" value="Remote" style="rounded=0;whiteSpace=wrap;html=1;" vertex="1" parent="1">
          <mxGeometry x="2106" y="2235" width="120" height="60" as="geometry" />
        </mxCell>
        <mxCell id="RIsMsyV0FrPjkX1AzLqW-493" style="edgeStyle=orthogonalEdgeStyle;rounded=0;orthogonalLoop=1;jettySize=auto;html=1;exitX=0.5;exitY=0;exitDx=0;exitDy=0;entryX=0.5;entryY=1;entryDx=0;entryDy=0;" edge="1" parent="1" source="RIsMsyV0FrPjkX1AzLqW-490" target="RIsMsyV0FrPjkX1AzLqW-347">
          <mxGeometry relative="1" as="geometry" />
        </mxCell>
        <mxCell id="RIsMsyV0FrPjkX1AzLqW-495" value="CreateRole" style="rounded=0;whiteSpace=wrap;html=1;" vertex="1" parent="1">
          <mxGeometry x="2574" y="2234.31" width="120" height="60" as="geometry" />
        </mxCell>
        <mxCell id="RIsMsyV0FrPjkX1AzLqW-496" value="CreateManyRole" style="rounded=0;whiteSpace=wrap;html=1;" vertex="1" parent="1">
          <mxGeometry x="2712" y="2234.31" width="120" height="60" as="geometry" />
        </mxCell>
        <mxCell id="RIsMsyV0FrPjkX1AzLqW-497" value="ModifyRoles&#39;sData" style="rounded=0;whiteSpace=wrap;html=1;" vertex="1" parent="1">
          <mxGeometry x="2862" y="2234.31" width="120" height="60" as="geometry" />
        </mxCell>
        <mxCell id="RIsMsyV0FrPjkX1AzLqW-498" value="ModifyManyRoles" style="rounded=0;whiteSpace=wrap;html=1;" vertex="1" parent="1">
          <mxGeometry x="3000" y="2234.31" width="120" height="60" as="geometry" />
        </mxCell>
        <mxCell id="RIsMsyV0FrPjkX1AzLqW-499" value="FetchAll" style="rounded=0;whiteSpace=wrap;html=1;" vertex="1" parent="1">
          <mxGeometry x="3174" y="2234.31" width="120" height="60" as="geometry" />
        </mxCell>
        <mxCell id="RIsMsyV0FrPjkX1AzLqW-500" value="Remove" style="rounded=0;whiteSpace=wrap;html=1;" vertex="1" parent="1">
          <mxGeometry x="3522" y="2234.31" width="120" height="60" as="geometry" />
        </mxCell>
        <mxCell id="RIsMsyV0FrPjkX1AzLqW-501" style="edgeStyle=orthogonalEdgeStyle;rounded=0;orthogonalLoop=1;jettySize=auto;html=1;exitX=0.5;exitY=0;exitDx=0;exitDy=0;entryX=0.5;entryY=1;entryDx=0;entryDy=0;" edge="1" parent="1" source="RIsMsyV0FrPjkX1AzLqW-381" target="RIsMsyV0FrPjkX1AzLqW-362">
          <mxGeometry relative="1" as="geometry" />
        </mxCell>
      </root>
    </mxGraphModel>
  </diagram>
</mxfile>
